<svg width="60" height="65" viewBox="0 0 60 65" fill="none" xmlns="http://www.w3.org/2000/svg">
<path d="M34.3882 30.294C34.4962 30.294 34.5502 30.294 34.6582 30.24L35.5762 29.7C35.8462 29.538 35.9002 29.214 35.7922 28.944C35.6302 28.674 35.3062 28.62 35.0362 28.728L34.1182 29.268C33.8482 29.43 33.7942 29.754 33.9022 30.024C34.0102 30.186 34.1722 30.294 34.3882 30.294Z" fill="#FF0000"/>
<path d="M39.0862 27.594C39.1942 27.594 39.2482 27.594 39.3562 27.54L40.2742 27C40.5442 26.838 40.5982 26.514 40.4902 26.244C40.3282 25.974 40.0042 25.92 39.7342 26.028L38.8162 26.568C38.5462 26.73 38.4922 27.054 38.6002 27.324C38.7082 27.486 38.8702 27.594 39.0862 27.594Z" fill="#FF0000"/>
<path d="M25.0463 29.16L24.1283 28.62C23.8583 28.458 23.5343 28.566 23.3723 28.836C23.2103 29.106 23.3183 29.43 23.5883 29.592L24.5063 30.132C24.6143 30.186 24.6683 30.186 24.7763 30.186C24.9383 30.186 25.1543 30.078 25.2623 29.916C25.3703 29.646 25.2623 29.322 25.0463 29.16Z" fill="#FF0000"/>
<path d="M20.2943 26.514L19.3763 25.974C19.1063 25.812 18.7823 25.92 18.6203 26.19C18.4583 26.46 18.5663 26.784 18.8363 26.946L19.7543 27.486C19.8623 27.54 19.9163 27.54 20.0243 27.54C20.1863 27.54 20.4023 27.432 20.5103 27.27C20.6723 27 20.5643 26.676 20.2943 26.514Z" fill="#FF0000"/>
<path d="M29.6904 42.66C29.3664 42.66 29.1504 42.876 29.1504 43.2V44.28C29.1504 44.604 29.3664 44.82 29.6904 44.82C30.0144 44.82 30.2304 44.604 30.2304 44.28V43.2C30.2304 42.876 30.0144 42.66 29.6904 42.66Z" fill="#FF0000"/>
<path d="M29.6904 37.26C29.3664 37.26 29.1504 37.476 29.1504 37.8V38.88C29.1504 39.204 29.3664 39.42 29.6904 39.42C30.0144 39.42 30.2304 39.204 30.2304 38.88V37.8C30.2304 37.476 30.0144 37.26 29.6904 37.26Z" fill="#FF0000"/>
<path d="M29.6904 27.486C30.0144 27.486 30.2304 27.27 30.2304 26.946V25.866C30.2304 25.542 30.0144 25.326 29.6904 25.326C29.3664 25.326 29.1504 25.542 29.1504 25.866V26.946C29.1504 27.216 29.3664 27.486 29.6904 27.486Z" fill="#FF0000"/>
<path d="M29.6904 22.086C30.0144 22.086 30.2304 21.87 30.2304 21.546V20.466C30.2304 20.142 30.0144 19.926 29.6904 19.926C29.3664 19.926 29.1504 20.142 29.1504 20.466V21.546C29.1504 21.816 29.3664 22.086 29.6904 22.086Z" fill="#FF0000"/>
<path d="M40.3282 37.746L39.4102 37.206C39.1402 37.044 38.8162 37.152 38.6542 37.422C38.4922 37.692 38.6002 38.016 38.8702 38.178L39.7882 38.718C39.8962 38.772 39.9502 38.772 40.0582 38.772C40.2202 38.772 40.4362 38.664 40.5442 38.502C40.6522 38.232 40.5982 37.908 40.3282 37.746Z" fill="#FF0000"/>
<path d="M35.6302 35.1L34.7122 34.56C34.4422 34.398 34.1182 34.506 33.9562 34.776C33.7942 35.046 33.9022 35.37 34.1722 35.532L35.0902 36.072C35.1982 36.126 35.2522 36.126 35.3602 36.126C35.5222 36.126 35.7382 36.018 35.8462 35.856C35.9542 35.586 35.8462 35.262 35.6302 35.1Z" fill="#FF0000"/>
<path d="M19.8083 37.368L18.8903 37.908C18.6203 38.07 18.5123 38.394 18.6743 38.664C18.7823 38.826 18.9443 38.934 19.1603 38.934C19.2683 38.934 19.3223 38.934 19.4303 38.88L20.3483 38.34C20.6183 38.178 20.7263 37.854 20.5643 37.584C20.4023 37.314 20.0243 37.206 19.8083 37.368Z" fill="#FF0000"/>
<path d="M24.5063 34.722L23.5883 35.262C23.3183 35.424 23.2103 35.748 23.3723 36.018C23.4803 36.18 23.6423 36.288 23.8583 36.288C23.9663 36.288 24.0203 36.288 24.1283 36.234L25.0463 35.694C25.3163 35.532 25.4243 35.208 25.2623 34.938C25.1003 34.668 24.7763 34.56 24.5063 34.722Z" fill="#FF0000"/>
<path d="M54.5843 32.4C56.6903 29.592 58.2023 26.784 58.9043 24.138C59.7143 21.06 59.4983 18.414 58.2023 16.2C55.7183 11.988 49.6703 10.368 42.1103 11.232C39.0863 4.374 34.6583 0 29.6903 0C24.7223 0 20.2943 4.374 17.2703 11.232C9.71033 10.368 3.66233 11.988 1.17833 16.2C-0.117665 18.414 -0.333666 21.06 0.476334 24.138C1.17833 26.838 2.69033 29.646 4.79633 32.4C2.69033 35.208 1.17833 38.016 0.476334 40.662C-0.333666 43.74 -0.117665 46.386 1.17833 48.6C3.23033 52.11 7.71233 53.784 13.4903 53.784C14.7323 53.784 15.9743 53.676 17.3243 53.568C20.3483 60.426 24.7763 64.8 29.7443 64.8C34.7123 64.8 39.1403 60.426 42.1643 53.568C43.4603 53.73 44.7563 53.784 45.9983 53.784C51.7763 53.784 56.2583 52.056 58.3103 48.6C59.6063 46.386 59.8223 43.74 59.0123 40.662C58.2023 38.016 56.7443 35.208 54.5843 32.4ZM45.9983 12.042C51.3443 12.042 55.4483 13.608 57.2843 16.794C58.4183 18.738 58.6343 21.114 57.8783 23.868C57.2303 26.298 55.8263 28.944 53.8823 31.536C52.1543 29.376 49.9943 27.216 47.5643 25.164C47.7803 24.732 47.9423 24.246 47.9423 23.76C47.9423 22.14 46.5923 20.79 44.9723 20.79C44.3783 17.712 43.5143 14.85 42.4883 12.258C43.7303 12.096 44.8643 12.042 45.9983 12.042ZM46.8623 40.986C46.8623 42.012 45.9983 42.876 44.9723 42.876C43.9463 42.876 43.0823 42.012 43.0823 40.986C43.0823 39.96 43.9463 39.096 44.9723 39.096C45.9983 39.096 46.8623 39.96 46.8623 40.986ZM44.8103 38.016C43.2443 38.124 42.0023 39.42 42.0023 40.986C42.0023 41.472 42.1103 41.958 42.3263 42.336C40.7603 43.416 39.0863 44.496 37.3583 45.468C35.6303 46.44 33.9023 47.304 32.1743 48.114C31.6343 47.304 30.7163 46.764 29.6903 46.764C28.6643 46.764 27.7463 47.304 27.2063 48.114C25.4783 47.304 23.7503 46.44 22.0223 45.468C20.2943 44.496 18.6203 43.47 17.0543 42.336C17.2703 41.904 17.3783 41.472 17.3783 40.986C17.3783 39.42 16.1363 38.124 14.5703 38.016C14.4083 36.18 14.3003 34.344 14.3003 32.4C14.3003 30.51 14.4083 28.62 14.5703 26.784C16.1363 26.676 17.3783 25.38 17.3783 23.814C17.3783 23.328 17.2703 22.842 17.0543 22.464C18.6203 21.384 20.2943 20.304 22.0223 19.332C23.7503 18.36 25.4783 17.496 27.2063 16.686C27.7463 17.496 28.6643 18.036 29.6903 18.036C30.7163 18.036 31.6343 17.496 32.1743 16.686C33.9023 17.496 35.6303 18.36 37.3583 19.332C39.0863 20.304 40.7063 21.33 42.2723 22.41C42.1103 22.788 42.0023 23.22 42.0023 23.706C42.0023 25.272 43.2443 26.568 44.8103 26.676C44.9723 28.512 45.0803 30.456 45.0803 32.4C45.0263 34.29 44.9723 36.18 44.8103 38.016ZM31.5803 49.734C31.5803 50.76 30.7163 51.624 29.6903 51.624C28.6643 51.624 27.8003 50.76 27.8003 49.734C27.8003 48.708 28.6643 47.844 29.6903 47.844C30.7163 47.844 31.5803 48.708 31.5803 49.734ZM14.4083 39.096C15.4343 39.096 16.2983 39.96 16.2983 40.986C16.2983 42.012 15.4343 42.876 14.4083 42.876C13.3823 42.876 12.5183 42.012 12.5183 40.986C12.5183 39.96 13.3283 39.096 14.4083 39.096ZM12.5183 23.814C12.5183 22.788 13.3823 21.924 14.4083 21.924C15.4343 21.924 16.2983 22.788 16.2983 23.814C16.2983 24.84 15.4343 25.704 14.4083 25.704C13.3283 25.704 12.5183 24.84 12.5183 23.814ZM27.8003 15.066C27.8003 14.04 28.6643 13.176 29.6903 13.176C30.7163 13.176 31.5803 14.04 31.5803 15.066C31.5803 16.092 30.7163 16.956 29.6903 16.956C28.6643 16.956 27.8003 16.092 27.8003 15.066ZM44.9723 25.65C43.9463 25.65 43.0823 24.786 43.0823 23.76C43.0823 22.734 43.9463 21.87 44.9723 21.87C45.9983 21.87 46.8623 22.734 46.8623 23.76C46.8623 24.786 46.0523 25.65 44.9723 25.65ZM42.9203 21.546C41.3543 20.466 39.6263 19.386 37.8983 18.414C36.1163 17.388 34.3883 16.524 32.6063 15.714C32.6603 15.498 32.6603 15.282 32.6603 15.066C32.6603 14.904 32.6603 14.742 32.6063 14.526C35.6843 13.446 38.6543 12.744 41.4623 12.366C42.4883 14.904 43.3523 17.82 43.9463 20.952C43.5683 21.06 43.2443 21.276 42.9203 21.546ZM26.7743 15.714C24.9923 16.524 23.2643 17.388 21.4823 18.414C19.7003 19.44 18.0263 20.466 16.4063 21.6C16.1363 21.33 15.7583 21.114 15.4343 21.006C16.0283 17.82 16.8923 14.904 17.9183 12.366C20.6723 12.744 23.6963 13.5 26.7743 14.526C26.7203 14.688 26.7203 14.85 26.7203 15.066C26.7203 15.282 26.7203 15.498 26.7743 15.714ZM12.4103 26.028C12.7343 26.298 13.1123 26.514 13.5443 26.676C13.3823 28.512 13.2743 30.456 13.2743 32.4C13.2743 34.344 13.3823 36.288 13.5443 38.124C13.1123 38.232 12.7343 38.448 12.4103 38.772C10.0343 36.72 7.92833 34.56 6.20033 32.4C7.92833 30.24 10.0343 28.08 12.4103 26.028ZM16.4063 43.2C18.0263 44.334 19.7003 45.36 21.4823 46.386C23.2643 47.412 24.9923 48.276 26.7743 49.086C26.7203 49.302 26.7203 49.518 26.7203 49.734C26.7203 49.896 26.7203 50.058 26.7743 50.274C23.6963 51.354 20.7263 52.056 17.9183 52.434C16.8923 49.842 16.0283 46.926 15.4343 43.794C15.7583 43.686 16.1363 43.47 16.4063 43.2ZM32.6063 49.086C34.3883 48.276 36.1163 47.412 37.8983 46.386C39.6803 45.36 41.3543 44.334 42.9743 43.2C43.2443 43.47 43.6223 43.686 43.9463 43.794C43.3523 46.98 42.4883 49.896 41.4623 52.434C38.7083 52.056 35.6843 51.3 32.6063 50.274C32.6603 50.112 32.6603 49.95 32.6603 49.734C32.6603 49.518 32.6603 49.302 32.6063 49.086ZM46.9703 38.772C46.6463 38.502 46.2683 38.286 45.8363 38.124C45.9983 36.288 46.1063 34.344 46.1063 32.4C46.1063 30.402 45.9983 28.458 45.8363 26.568C46.2143 26.46 46.5923 26.244 46.9163 25.974C49.3463 28.026 51.4523 30.186 53.1803 32.4C51.4523 34.56 49.3463 36.72 46.9703 38.772ZM29.6903 1.08C34.1723 1.08 38.2223 5.076 41.0303 11.394C38.2763 11.772 35.3063 12.528 32.2283 13.554C31.6883 12.69 30.7703 12.096 29.6363 12.096C28.5563 12.096 27.5843 12.69 27.0443 13.554C24.0203 12.528 21.0503 11.772 18.2423 11.394C21.1583 5.076 25.2083 1.08 29.6903 1.08ZM1.50233 23.814C0.746334 21.06 0.962334 18.684 2.09633 16.74C3.98633 13.554 8.09033 11.988 13.3823 11.988C14.4623 11.988 15.6503 12.042 16.8383 12.204C15.8123 14.796 14.9483 17.658 14.3543 20.79C12.7343 20.79 11.4383 22.14 11.4383 23.76C11.4383 24.246 11.5463 24.678 11.7623 25.11C9.33233 27.162 7.22633 29.268 5.49833 31.428C3.50033 28.89 2.15033 26.298 1.50233 23.814ZM2.09633 48.06C0.962334 46.116 0.746334 43.74 1.50233 40.986C2.15033 38.556 3.55433 35.91 5.49833 33.318C7.22633 35.478 9.33233 37.638 11.7623 39.636C11.5463 40.068 11.4383 40.5 11.4383 40.986C11.4383 42.606 12.7343 43.956 14.3543 43.956C14.9483 47.088 15.8123 50.004 16.8383 52.542C9.87233 53.352 4.36433 51.894 2.09633 48.06ZM29.6903 63.72C25.2083 63.72 21.1583 59.724 18.3503 53.406C21.1043 53.028 24.0743 52.272 27.1523 51.246C27.6923 52.11 28.6103 52.704 29.7443 52.704C30.8243 52.704 31.7963 52.11 32.3363 51.246C35.3603 52.272 38.3303 53.028 41.1383 53.406C38.2223 59.724 34.1723 63.72 29.6903 63.72ZM57.2843 48.06C55.0163 51.894 49.5083 53.352 42.5423 52.596C43.5683 50.004 44.4323 47.142 45.0263 44.01C46.6463 43.956 47.9423 42.66 47.9423 41.04C47.9423 40.554 47.8343 40.122 47.6183 39.69C50.0483 37.638 52.1543 35.532 53.8823 33.372C55.8263 35.964 57.2303 38.61 57.8783 41.04C58.6343 43.74 58.4183 46.116 57.2843 48.06Z" fill="#FF0000"/>
<path d="M29.6902 29.43C28.0162 29.43 26.7202 30.78 26.7202 32.4C26.7202 34.02 28.0702 35.37 29.6902 35.37C31.3102 35.37 32.6602 34.02 32.6602 32.4C32.6602 30.78 31.3642 29.43 29.6902 29.43ZM29.6902 34.29C28.6642 34.29 27.8002 33.426 27.8002 32.4C27.8002 31.374 28.6642 30.51 29.6902 30.51C30.7162 30.51 31.5802 31.374 31.5802 32.4C31.5802 33.426 30.7162 34.29 29.6902 34.29Z" fill="#FF0000"/>
</svg>
